<?xml version="1.0" encoding="UTF-8"?>
<svg width="36px" height="36px" viewBox="0 0 36 36" version="1.1" xmlns="http://www.w3.org/2000/svg" xmlns:xlink="http://www.w3.org/1999/xlink">
    <!-- Generator: Sketch 47.1 (45422) - http://www.bohemiancoding.com/sketch -->
    <title>icon</title>
    <desc>Created with Sketch.</desc>
    <defs></defs>
    <g id="_symbols" stroke="none" stroke-width="1" fill="none" fill-rule="evenodd">
        <g id="modules-/-header" transform="translate(-1268.000000, -20.000000)" fill="#D5D5DE">
            <g id="icons-/-user" transform="translate(1264.000000, 16.000000)">
                <path d="M22,34.7346154 C24.1436005,34.7346154 26.160247,34.1987233 28.05,33.1269231 C29.8833425,32.1397387 31.3923018,30.7718036 32.5769231,29.0230769 C32.5487178,27.9512767 31.8859039,26.9641071 30.5884615,26.0615385 C29.4602508,25.2999962 28.0218036,24.6794896 26.2730769,24.2 C24.6935818,23.776921 23.2621859,23.5653846 21.9788462,23.5653846 C20.6955064,23.5653846 19.2641105,23.776921 17.6846154,24.2 C15.9358887,24.6794896 14.511544,25.2999962 13.4115385,26.0615385 C12.1140961,26.9641071 11.4512822,27.9512767 11.4230769,29.0230769 C12.6076982,30.7718036 14.1166575,32.1397387 15.95,33.1269231 C17.8679583,34.1987233 19.8846048,34.7346154 22,34.7346154 Z M22,9.68846154 C21.0692261,9.68846154 20.1948759,9.92820273 19.3769231,10.4076923 C18.5589703,10.8871819 17.9102588,11.5358933 17.4307692,12.3538462 C16.9512797,13.171799 16.7115385,14.0461492 16.7115385,14.9769231 C16.7115385,15.907697 16.9512797,16.7820472 17.4307692,17.6 C17.9102588,18.4179528 18.5589703,19.0666643 19.3769231,19.5461538 C20.1948759,20.0256434 21.0692261,20.2653846 22,20.2653846 C22.9307739,20.2653846 23.8051241,20.0256434 24.6230769,19.5461538 C25.4410297,19.0666643 26.0897412,18.4179528 26.5692308,17.6 C27.0487203,16.7820472 27.2884615,15.907697 27.2884615,14.9769231 C27.2884615,14.0461492 27.0487203,13.171799 26.5692308,12.3538462 C26.0897412,11.5358933 25.4410297,10.8871819 24.6230769,10.4076923 C23.8051241,9.92820273 22.9307739,9.68846154 22,9.68846154 Z M22,4.4 C25.2154007,4.4 28.191012,5.20383812 30.9269231,6.81153846 C33.5782184,8.334623 35.665377,10.4217816 37.1884615,13.0730769 C38.7961619,15.808988 39.6,18.7845993 39.6,22 C39.6,25.2154007 38.7961619,28.191012 37.1884615,30.9269231 C35.665377,33.5782184 33.5782184,35.665377 30.9269231,37.1884615 C28.191012,38.7961619 25.2154007,39.6 22,39.6 C18.7845993,39.6 15.808988,38.7961619 13.0730769,37.1884615 C10.4217816,35.6371717 8.334623,33.5359107 6.81153846,30.8846154 C5.20383812,28.1487043 4.4,25.1871954 4.4,22 C4.4,18.8128046 5.20383812,15.8512957 6.81153846,13.1153846 C8.36282827,10.4640893 10.4640893,8.36282827 13.1153846,6.81153846 C15.8512957,5.20383812 18.8128046,4.4 22,4.4 Z" id="account_circle---material"></path>
            </g>
        </g>
    </g>
</svg>