<?xml version="1.0" encoding="UTF-8"?>
<svg width="32px" height="24px" viewBox="0 0 32 24" version="1.1" xmlns="http://www.w3.org/2000/svg" xmlns:xlink="http://www.w3.org/1999/xlink">
    <!-- Generator: Sketch 48.2 (47327) - http://www.bohemiancoding.com/sketch -->
    <title>icon</title>
    <desc>Created with Sketch.</desc>
    <defs>
        <path d="M28.0384615,12 C29.4743662,12 30.8076862,12.3572532 32.0384615,13.0717703 C33.2692369,13.7862875 34.237176,14.7559747 34.9423077,15.9808612 C35.6474394,17.2057478 36,18.5454473 36,20 C36,21.4545527 35.6474394,22.7942522 34.9423077,24.0191388 C34.237176,25.2440253 33.2692369,26.2137125 32.0384615,26.9282297 C30.8076862,27.6427468 29.4743662,28 28.0384615,28 L21.5769231,28 L21.5769231,24.937799 L28.0384615,24.937799 C28.9102608,24.937799 29.7307654,24.7145158 30.5,24.2679426 C31.2692346,23.8213694 31.8782029,23.2153148 32.3269231,22.4497608 C32.7756433,21.6842067 33,20.8676279 33,20 C33,19.1323721 32.7756433,18.3157933 32.3269231,17.5502392 C31.8782029,16.7846852 31.2692346,16.1786306 30.5,15.7320574 C29.7307654,15.2854842 28.9102608,15.062201 28.0384615,15.062201 L21.5769231,15.062201 L21.5769231,12 L28.0384615,12 Z M13.6153846,21.569378 L13.6153846,18.430622 L26.3846154,18.430622 L26.3846154,21.569378 L13.6153846,21.569378 Z M7,20 C7,20.8676279 7.22435673,21.6842067 7.67307692,22.4497608 C8.12179712,23.2153148 8.73076538,23.8213694 9.5,24.2679426 C10.2692346,24.7145158 11.0897392,24.937799 11.9615385,24.937799 L18.4230769,24.937799 L18.4230769,28 L11.9615385,28 C10.5256338,28 9.19231385,27.6427468 7.96153846,26.9282297 C6.73076308,26.2137125 5.76282404,25.2440253 5.05769231,24.0191388 C4.35256058,22.7942522 4,21.4545527 4,20 C4,18.5454473 4.35256058,17.2057478 5.05769231,15.9808612 C5.76282404,14.7559747 6.73076308,13.7862875 7.96153846,13.0717703 C9.19231385,12.3572532 10.5256338,12 11.9615385,12 L18.4230769,12 L18.4230769,15.062201 L11.9615385,15.062201 C11.0897392,15.062201 10.2692346,15.2854842 9.5,15.7320574 C8.73076538,16.1786306 8.12179712,16.7846852 7.67307692,17.5502392 C7.22435673,18.3157933 7,19.1323721 7,20 Z" id="path-1"></path>
    </defs>
    <g id="Page-1" stroke="none" stroke-width="1" fill="none" fill-rule="evenodd">
        <g id="icons-/-link" transform="translate(-4.000000, -8.000000)">
            <mask id="mask-2" fill="white">
                <use xlink:href="#path-1"></use>
            </mask>
            <use id="link---material" fill="#000000" fill-rule="evenodd" transform="translate(20.000000, 20.000000) rotate(-25.000000) translate(-20.000000, -20.000000) " xlink:href="#path-1"></use>
            <g id="palette/col/november" mask="url(#mask-2)" fill="#65708A" fill-rule="evenodd">
                <rect id="color" x="0" y="0" width="40" height="40"></rect>
            </g>
        </g>
    </g>
</svg>