<?xml version="1.0" encoding="UTF-8"?>
<svg width="32px" height="32px" viewBox="0 -4 32 32" version="1.1" xmlns="http://www.w3.org/2000/svg" xmlns:xlink="http://www.w3.org/1999/xlink">
    <!-- Generator: Sketch 48.2 (47327) - http://www.bohemiancoding.com/sketch -->
    <title>Group 2</title>
    <desc>Created with Sketch.</desc>
    <defs>
        <path d="M26.0384615,10 C27.4743662,10 28.8076862,10.3572532 30.0384615,11.0717703 C31.2692369,11.7862875 32.237176,12.7559747 32.9423077,13.9808612 C33.6474394,15.2057478 34,16.5454473 34,18 C34,19.4545527 33.6474394,20.7942522 32.9423077,22.0191388 C32.237176,23.2440253 31.2692369,24.2137125 30.0384615,24.9282297 C28.8076862,25.6427468 27.4743662,26 26.0384615,26 L19.5769231,26 L19.5769231,22.937799 L26.0384615,22.937799 C26.9102608,22.937799 27.7307654,22.7145158 28.5,22.2679426 C29.2692346,21.8213694 29.8782029,21.2153148 30.3269231,20.4497608 C30.7756433,19.6842067 31,18.8676279 31,18 C31,17.1323721 30.7756433,16.3157933 30.3269231,15.5502392 C29.8782029,14.7846852 29.2692346,14.1786306 28.5,13.7320574 C27.7307654,13.2854842 26.9102608,13.062201 26.0384615,13.062201 L19.5769231,13.062201 L19.5769231,10 L26.0384615,10 Z M11.6153846,19.569378 L11.6153846,16.430622 L24.3846154,16.430622 L24.3846154,19.569378 L11.6153846,19.569378 Z M5,18 C5,18.8676279 5.22435673,19.6842067 5.67307692,20.4497608 C6.12179712,21.2153148 6.73076538,21.8213694 7.5,22.2679426 C8.26923462,22.7145158 9.08973923,22.937799 9.96153846,22.937799 L16.4230769,22.937799 L16.4230769,26 L9.96153846,26 C8.52563385,26 7.19231385,25.6427468 5.96153846,24.9282297 C4.73076308,24.2137125 3.76282404,23.2440253 3.05769231,22.0191388 C2.35256058,20.7942522 2,19.4545527 2,18 C2,16.5454473 2.35256058,15.2057478 3.05769231,13.9808612 C3.76282404,12.7559747 4.73076308,11.7862875 5.96153846,11.0717703 C7.19231385,10.3572532 8.52563385,10 9.96153846,10 L16.4230769,10 L16.4230769,13.062201 L9.96153846,13.062201 C9.08973923,13.062201 8.26923462,13.2854842 7.5,13.7320574 C6.73076538,14.1786306 6.12179712,14.7846852 5.67307692,15.5502392 C5.22435673,16.3157933 5,17.1323721 5,18 Z" id="path-1"></path>
    </defs>
    <g id="Page-1" stroke="none" stroke-width="1" fill="none" fill-rule="evenodd">
        <g id="Group-2" transform="translate(-2.000000, -6.000000)">
            <rect id="Rectangle" stroke-opacity="0" stroke="#979797" x="0.5" y="0.5" width="35" height="35"></rect>
            <mask id="mask-2" fill="white">
                <use xlink:href="#path-1"></use>
            </mask>
            <use id="link---material" fill="#414C66" transform="translate(18.000000, 18.000000) rotate(-25.000000) translate(-18.000000, -18.000000) " xlink:href="#path-1"></use>
        </g>
    </g>
</svg>