<?xml version="1.0" encoding="UTF-8"?>
<svg width="14px" height="14px" viewBox="0 0 14 14" version="1.1" xmlns="http://www.w3.org/2000/svg" xmlns:xlink="http://www.w3.org/1999/xlink">
    <!-- Generator: Sketch 48.2 (47327) - http://www.bohemiancoding.com/sketch -->
    <title>components / action</title>
    <desc>Created with Sketch.</desc>
    <defs>
        <path d="M16.776,6.136 L15.3573333,7.55466667 L12.4453333,4.64266667 L13.864,3.224 C14.0133341,3.07466592 14.1968878,3 14.4146667,3 C14.6324455,3 14.8159993,3.07466592 14.9653333,3.224 L16.776,5.03466667 C16.9253341,5.18400075 17,5.36755447 17,5.58533333 C17,5.8031122 16.9253341,5.98666592 16.776,6.136 Z M3,14.088 L11.6053333,5.48266667 L14.5173333,8.39466667 L5.912,17 L3,17 L3,14.088 Z" id="path-1"></path>
    </defs>
    <g id="5.0_create_post" stroke="none" stroke-width="1" fill="none" fill-rule="evenodd" transform="translate(-341.000000, -127.000000)">
        <g id="admin-post-header" transform="translate(136.000000, 124.000000)">
            <g id="campaign-title" transform="translate(1.000000, 0.000000)">
                <g id="icons-/-edit" transform="translate(201.000000, 0.000000)">
                    <mask id="mask-2" fill="white">
                        <use xlink:href="#path-1"></use>
                    </mask>
                    <g id="icon-pencil"></g>
                    <g id="palette/col/concrete" mask="url(#mask-2)" fill="#D5D5DE" fill-rule="evenodd">
                        <rect id="color" x="0" y="0" width="20" height="20"></rect>
                    </g>
                </g>
            </g>
        </g>
    </g>
</svg>