<?xml version="1.0" encoding="UTF-8"?>
<svg width="16px" height="12px" viewBox="0 0 16 12" version="1.1" xmlns="http://www.w3.org/2000/svg" xmlns:xlink="http://www.w3.org/1999/xlink">
    <!-- Generator: Sketch 48.2 (47327) - http://www.bohemiancoding.com/sketch -->
    <title>link - material</title>
    <desc>Created with Sketch.</desc>
    <defs>
        <path d="M14.0192308,6 C14.7371831,6 15.4038431,6.1786266 16.0192308,6.53588517 C16.6346185,6.89314373 17.118588,7.37798737 17.4711538,7.99043062 C17.8237197,8.60287388 18,9.27272364 18,10 C18,10.7272764 17.8237197,11.3971261 17.4711538,12.0095694 C17.118588,12.6220126 16.6346185,13.1068563 16.0192308,13.4641148 C15.4038431,13.8213734 14.7371831,14 14.0192308,14 L10.7884615,14 L10.7884615,12.4688995 L14.0192308,12.4688995 C14.4551304,12.4688995 14.8653827,12.3572579 15.25,12.1339713 C15.6346173,11.9106847 15.9391014,11.6076574 16.1634615,11.2248804 C16.3878216,10.8421033 16.5,10.433814 16.5,10 C16.5,9.56618603 16.3878216,9.15789665 16.1634615,8.77511962 C15.9391014,8.39234258 15.6346173,8.08931531 15.25,7.86602871 C14.8653827,7.64274211 14.4551304,7.53110048 14.0192308,7.53110048 L10.7884615,7.53110048 L10.7884615,6 L14.0192308,6 Z M6.80769231,10.784689 L6.80769231,9.215311 L13.1923077,9.215311 L13.1923077,10.784689 L6.80769231,10.784689 Z M3.5,10 C3.5,10.433814 3.61217837,10.8421033 3.83653846,11.2248804 C4.06089856,11.6076574 4.36538269,11.9106847 4.75,12.1339713 C5.13461731,12.3572579 5.54486962,12.4688995 5.98076923,12.4688995 L9.21153846,12.4688995 L9.21153846,14 L5.98076923,14 C5.26281692,14 4.59615692,13.8213734 3.98076923,13.4641148 C3.36538154,13.1068563 2.88141202,12.6220126 2.52884615,12.0095694 C2.17628029,11.3971261 2,10.7272764 2,10 C2,9.27272364 2.17628029,8.60287388 2.52884615,7.99043062 C2.88141202,7.37798737 3.36538154,6.89314373 3.98076923,6.53588517 C4.59615692,6.1786266 5.26281692,6 5.98076923,6 L9.21153846,6 L9.21153846,7.53110048 L5.98076923,7.53110048 C5.54486962,7.53110048 5.13461731,7.64274211 4.75,7.86602871 C4.36538269,8.08931531 4.06089856,8.39234258 3.83653846,8.77511962 C3.61217837,9.15789665 3.5,9.56618603 3.5,10 Z" id="path-1"></path>
    </defs>
    <g id="icons-/-link" stroke="none" stroke-width="1" fill="none" fill-rule="evenodd" transform="translate(-2.000000, -4.000000)">
        <mask id="mask-2" fill="white">
            <use xlink:href="#path-1"></use>
        </mask>
        <use id="link---material" fill="#414C66" transform="translate(10.000000, 10.000000) rotate(-25.000000) translate(-10.000000, -10.000000) " xlink:href="#path-1"></use>
    </g>
</svg>