<?xml version="1.0" encoding="UTF-8"?>
<svg width="14px" height="14px" viewBox="0 0 14 14" version="1.1" xmlns="http://www.w3.org/2000/svg" xmlns:xlink="http://www.w3.org/1999/xlink">
    <!-- Generator: Sketch 48.2 (47327) - http://www.bohemiancoding.com/sketch -->
    <title>refresh - material</title>
    <desc>Created with Sketch.</desc>
    <defs>
        <path d="M14.9399399,5.05389222 L17,3 L17,9.14071856 L10.8408408,9.14071856 L13.6786787,6.31137725 C13.1881857,5.82235284 12.6241273,5.44161813 11.9864865,5.16916168 C11.3488457,4.89670522 10.6796832,4.76047904 9.97897898,4.76047904 C9.02602126,4.76047904 8.14665068,4.99450864 7.34084084,5.46257485 C6.53503101,5.93064106 5.89739974,6.56636325 5.42792793,7.36976048 C4.95845611,8.17315771 4.72372372,9.04989545 4.72372372,10 C4.72372372,10.9501046 4.95845611,11.8268423 5.42792793,12.6302395 C5.89739974,13.4336368 6.53503101,14.0693589 7.34084084,14.5374251 C8.14665068,15.0054914 9.02602126,15.239521 9.97897898,15.239521 C11.1141198,15.239521 12.1371326,14.9181669 13.048048,14.2754491 C13.9589635,13.6327313 14.5895878,12.7944163 14.9399399,11.760479 L16.7477477,11.760479 C16.4954942,12.7664721 16.0400433,13.6641677 15.3813814,14.4535928 C14.7227194,15.2430179 13.9379425,15.8612752 13.027027,16.3083832 C12.0740693,16.7694634 11.0580635,17 9.97897898,17 C8.71771141,17 7.54054601,16.6786459 6.44744745,16.0359281 C5.39639114,15.4211546 4.56256565,14.5828396 3.94594595,13.5209581 C3.31531216,12.4451044 3,11.2714634 3,10 C3,8.72853656 3.31531216,7.5548956 3.94594595,6.47904192 C4.56256565,5.41716036 5.39639114,4.57884539 6.44744745,3.96407186 C7.54054601,3.32135407 8.71771141,3 9.97897898,3 C10.9319367,3 11.8358316,3.18163491 12.6906907,3.54491018 C13.5455498,3.90818545 14.2952921,4.41117443 14.9399399,5.05389222 Z" id="path-1"></path>
    </defs>
    <g id="icons-/-refresh" stroke="none" stroke-width="1" fill="none" fill-rule="evenodd" transform="translate(-3.000000, -3.000000)">
        <mask id="mask-2" fill="white">
            <use xlink:href="#path-1"></use>
        </mask>
        <use id="refresh---material" fill="#D5D5DE" xlink:href="#path-1"></use>
    </g>
</svg>