<?xml version="1.0" encoding="UTF-8"?>
<svg width="12px" height="16px" viewBox="0 0 12 16" version="1.1" xmlns="http://www.w3.org/2000/svg" xmlns:xlink="http://www.w3.org/1999/xlink">
    <!-- Generator: Sketch 49 (51002) - http://www.bohemiancoding.com/sketch -->
    <title>icon-lock</title>
    <desc>Created with Sketch.</desc>
    <defs>
        <path d="M12.3173653,7.35771429 L12.3173653,5.82171429 C12.3173653,5.40723602 12.2125759,5.01714469 12.002994,4.65142857 C11.7934121,4.28571246 11.5089838,3.99619154 11.1497006,3.78285714 C10.7904174,3.56952274 10.4071877,3.46285714 10,3.46285714 C9.59281234,3.46285714 9.20958263,3.56952274 8.8502994,3.78285714 C8.49101617,3.99619154 8.20658787,4.28571246 7.99700599,4.65142857 C7.7874241,5.01714469 7.68263473,5.40723602 7.68263473,5.82171429 L7.68263473,7.35771429 L12.3173653,7.35771429 Z M9.99898181,14 C10.4061695,14 10.7594594,13.851192 11.058862,13.5535714 C11.3582647,13.2559509 11.5079638,12.9047639 11.5079638,12.5 C11.5079638,12.0952361 11.3582647,11.7440491 11.058862,11.4464286 C10.7594594,11.148808 10.4061695,11 9.99898181,11 C9.59179414,11 9.23850426,11.148808 8.93910157,11.4464286 C8.63969887,11.7440491 8.48999977,12.0952361 8.48999977,12.5 C8.48999977,12.9047639 8.63969887,13.2559509 8.93910157,13.5535714 C9.23850426,13.851192 9.59179414,14 9.99898181,14 Z M14.491018,7.35771429 C14.8982056,7.35771429 15.2514955,7.50399854 15.5508982,7.79657143 C15.8503009,8.08914432 16,8.44266459 16,8.85714286 L16,16.5005714 C16,16.9150497 15.8503009,17.26857 15.5508982,17.5611429 C15.2514955,17.8537157 14.8982056,18 14.491018,18 L5.50898204,18 C5.10179437,18 4.74850449,17.8537157 4.4491018,17.5611429 C4.1496991,17.26857 4,16.9150497 4,16.5005714 L4,8.85714286 C4,8.44266459 4.1496991,8.08914432 4.4491018,7.79657143 C4.74850449,7.50399854 5.10179437,7.35771429 5.50898204,7.35771429 L6.24550898,7.35771429 L6.24550898,5.82171429 C6.24550898,5.12685367 6.41317198,4.48686007 6.74850299,3.90171429 C7.08383401,3.3165685 7.53891928,2.85333504 8.11377246,2.512 C8.68862563,2.17066496 9.31736186,2 10,2 C10.6826381,2 11.3113744,2.17066496 11.8862275,2.512 C12.4610807,2.85333504 12.916166,3.3165685 13.251497,3.90171429 C13.586828,4.48686007 13.754491,5.12685367 13.754491,5.82171429 L13.754491,7.35771429 L14.491018,7.35771429 Z" id="path-1"></path>
    </defs>
    <g id="_symbols" stroke="none" stroke-width="1" fill="none" fill-rule="evenodd">
        <g id="icons-/-lock" transform="translate(-4.000000, -2.000000)">
            <mask id="mask-2" fill="white">
                <use xlink:href="#path-1"></use>
            </mask>
            <use id="icon-lock" fill="#F0F0F5" xlink:href="#path-1"></use>
        </g>
    </g>
</svg>