<?xml version="1.0" encoding="UTF-8"?>
<svg width="16px" height="16px" viewBox="0 0 16 16" version="1.1" xmlns="http://www.w3.org/2000/svg" xmlns:xlink="http://www.w3.org/1999/xlink">
    <!-- Generator: Sketch 49 (51002) - http://www.bohemiancoding.com/sketch -->
    <title>account_circle - material</title>
    <desc>Created with Sketch.</desc>
    <defs>
        <path d="M10,15.7884615 C10.9743638,15.7884615 11.8910213,15.5448742 12.75,15.0576923 C13.5833375,14.6089721 14.2692281,13.9871835 14.8076923,13.1923077 C14.7948717,12.7051258 14.4935927,12.2564123 13.9038462,11.8461538 C13.3910231,11.4999983 12.7371835,11.2179498 11.9423077,11 C11.2243554,10.8076913 10.5737209,10.7115385 9.99038462,10.7115385 C9.40704837,10.7115385 8.75641385,10.8076913 8.03846154,11 C7.24358577,11.2179498 6.59615635,11.4999983 6.09615385,11.8461538 C5.50640731,12.2564123 5.20512827,12.7051258 5.19230769,13.1923077 C5.73077192,13.9871835 6.4166625,14.6089721 7.25,15.0576923 C8.12179923,15.5448742 9.03845673,15.7884615 10,15.7884615 Z M10,4.40384615 C9.57692096,4.40384615 9.17948904,4.51281942 8.80769231,4.73076923 C8.43589558,4.94871904 8.14102673,5.24358788 7.92307692,5.61538462 C7.70512712,5.98718135 7.59615385,6.38461327 7.59615385,6.80769231 C7.59615385,7.23077135 7.70512712,7.62820327 7.92307692,8 C8.14102673,8.37179673 8.43589558,8.66666558 8.80769231,8.88461538 C9.17948904,9.10256519 9.57692096,9.21153846 10,9.21153846 C10.423079,9.21153846 10.820511,9.10256519 11.1923077,8.88461538 C11.5641044,8.66666558 11.8589733,8.37179673 12.0769231,8 C12.2948729,7.62820327 12.4038462,7.23077135 12.4038462,6.80769231 C12.4038462,6.38461327 12.2948729,5.98718135 12.0769231,5.61538462 C11.8589733,5.24358788 11.5641044,4.94871904 11.1923077,4.73076923 C10.820511,4.51281942 10.423079,4.40384615 10,4.40384615 Z M10,2 C11.4615458,2 12.8140963,2.36538096 14.0576923,3.09615385 C15.2628265,3.788465 16.211535,4.73717346 16.9038462,5.94230769 C17.634619,7.18590365 18,8.53845423 18,10 C18,11.4615458 17.634619,12.8140963 16.9038462,14.0576923 C16.211535,15.2628265 15.2628265,16.211535 14.0576923,16.9038462 C12.8140963,17.634619 11.4615458,18 10,18 C8.53845423,18 7.18590365,17.634619 5.94230769,16.9038462 C4.73717346,16.1987144 3.788465,15.2435958 3.09615385,14.0384615 C2.36538096,12.7948656 2,11.4487252 2,10 C2,8.55127481 2.36538096,7.20513442 3.09615385,5.96153846 C3.80128558,4.75640423 4.75640423,3.80128558 5.96153846,3.09615385 C7.20513442,2.36538096 8.55127481,2 10,2 Z" id="path-1"></path>
    </defs>
    <g id="_symbols" stroke="none" stroke-width="1" fill="none" fill-rule="evenodd">
        <g id="icons-/-user" transform="translate(-2.000000, -2.000000)">
            <mask id="mask-2" fill="white">
                <use xlink:href="#path-1"></use>
            </mask>
            <use id="account_circle---material" fill="#F0F0F5" xlink:href="#path-1"></use>
        </g>
    </g>
</svg>