<?xml version="1.0" encoding="UTF-8"?>
<svg width="14px" height="16px" viewBox="0 0 14 16" version="1.1" xmlns="http://www.w3.org/2000/svg" xmlns:xlink="http://www.w3.org/1999/xlink">
    <!-- Generator: Sketch 48.2 (47327) - http://www.bohemiancoding.com/sketch -->
    <title>date_range - material</title>
    <desc>Created with Sketch.</desc>
    <defs>
        <path d="M15.432,16.4230769 L15.432,7.59615385 L4.568,7.59615385 L4.568,16.4230769 L15.432,16.4230769 Z M15.432,3.57692308 C15.8551132,3.57692308 16.2222207,3.73717788 16.5333333,4.05769231 C16.844446,4.37820673 17,4.75640808 17,5.19230769 L17,16.4230769 C17,16.8589765 16.844446,17.2307677 16.5333333,17.5384615 C16.2222207,17.8461554 15.8551132,18 15.432,18 L4.568,18 C4.13244227,18 3.76222375,17.8461554 3.45733333,17.5384615 C3.15244292,17.2307677 3,16.8589765 3,16.4230769 L3,5.19230769 C3,4.75640808 3.15244292,4.37820673 3.45733333,4.05769231 C3.76222375,3.73717788 4.13244227,3.57692308 4.568,3.57692308 L5.33333333,3.57692308 L5.33333333,2 L6.90133333,2 L6.90133333,3.57692308 L13.0986667,3.57692308 L13.0986667,2 L14.6666667,2 L14.6666667,3.57692308 L15.432,3.57692308 Z M13.9013333,9.21153846 L13.9013333,10.7884615 L12.3333333,10.7884615 L12.3333333,9.21153846 L13.9013333,9.21153846 Z M10.7653333,9.21153846 L10.7653333,10.7884615 L9.23466667,10.7884615 L9.23466667,9.21153846 L10.7653333,9.21153846 Z M7.66666667,9.21153846 L7.66666667,10.7884615 L6.09866667,10.7884615 L6.09866667,9.21153846 L7.66666667,9.21153846 Z" id="path-1"></path>
    </defs>
    <g id="icons-/-date" stroke="none" stroke-width="1" fill="none" fill-rule="evenodd" transform="translate(-3.000000, -2.000000)">
        <mask id="mask-2" fill="white">
            <use xlink:href="#path-1"></use>
        </mask>
        <use id="date_range---material" fill="#D5D5DE" xlink:href="#path-1"></use>
    </g>
</svg>