<?xml version="1.0" encoding="UTF-8"?>
<svg width="20px" height="20px" viewBox="0 0 20 20" version="1.1" xmlns="http://www.w3.org/2000/svg" xmlns:xlink="http://www.w3.org/1999/xlink">
    <!-- Generator: Sketch 48.2 (47327) - http://www.bohemiancoding.com/sketch -->
    <title>icons / close</title>
    <desc>Created with Sketch.</desc>
    <defs>
        <path d="M16.8230769,12.9461538 L16.8230769,11.0538462 L12.9461538,11.0538462 L12.9461538,7.17692308 L11.0538462,7.17692308 L11.0538462,11.0538462 L7.17692308,11.0538462 L7.17692308,12.9461538 L11.0538462,12.9461538 L11.0538462,16.8230769 L12.9461538,16.8230769 L12.9461538,12.9461538 L16.8230769,12.9461538 Z M12,2.4 C13.7538549,2.4 15.3769156,2.83845715 16.8692308,3.71538462 C18.3153918,4.546158 19.453842,5.68460815 20.2846154,7.13076923 C21.1615428,8.62308438 21.6,10.2461451 21.6,12 C21.6,13.7538549 21.1615428,15.3769156 20.2846154,16.8692308 C19.453842,18.3153918 18.3153918,19.453842 16.8692308,20.2846154 C15.3769156,21.1615428 13.7538549,21.6 12,21.6 C10.2461451,21.6 8.62308438,21.1615428 7.13076923,20.2846154 C5.68460815,19.4384573 4.546158,18.2923149 3.71538462,16.8461538 C2.83845715,15.3538387 2.4,13.7384702 2.4,12 C2.4,10.2615298 2.83845715,8.64616131 3.71538462,7.15384615 C4.56154269,5.70768508 5.70768508,4.56154269 7.15384615,3.71538462 C8.64616131,2.83845715 10.2615298,2.4 12,2.4 Z" id="path-1"></path>
    </defs>
    <g id="3.0_seclect-grid" stroke="none" stroke-width="1" fill="none" fill-rule="evenodd" transform="translate(-1269.000000, -142.000000)">
        <g id="Image-select" transform="translate(132.000000, 124.000000)">
            <g id="icons-/-add" transform="translate(1147.000000, 28.000000) rotate(45.000000) translate(-1147.000000, -28.000000) translate(1135.000000, 16.000000)">
                <mask id="mask-2" fill="white">
                    <use xlink:href="#path-1"></use>
                </mask>
                <use id="icon" fill="#FFFFFF" fill-rule="evenodd" xlink:href="#path-1"></use>
                <g id="palette/col/regent" mask="url(#mask-2)" fill="#878FA1" fill-rule="evenodd">
                    <rect id="color" x="0" y="0" width="24" height="24"></rect>
                </g>
            </g>
        </g>
    </g>
</svg>