<?xml version="1.0" encoding="UTF-8"?>
<svg width="16px" height="10px" viewBox="0 0 16 10" version="1.1" xmlns="http://www.w3.org/2000/svg" xmlns:xlink="http://www.w3.org/1999/xlink">
    <!-- Generator: Sketch 48.2 (47327) - http://www.bohemiancoding.com/sketch -->
    <title>remove_red_eye - material</title>
    <desc>Created with Sketch.</desc>
    <defs>
        <path d="M10,8.008 C10.3834442,8.008 10.7436439,8.09866576 11.08061,8.28 C11.4175761,8.46133424 11.6848211,8.70666512 11.8823529,9.016 C12.0798848,9.32533488 12.1786492,9.65599824 12.1786492,10.008 C12.1786492,10.3600018 12.0798848,10.6906651 11.8823529,11 C11.6848211,11.3093349 11.4175761,11.5546658 11.08061,11.736 C10.7436439,11.9173342 10.3834442,12.008 10,12.008 C9.61655582,12.008 9.25635608,11.9173342 8.91938998,11.736 C8.58242388,11.5546658 8.31517891,11.3093349 8.11764706,11 C7.92011521,10.6906651 7.82135076,10.3600018 7.82135076,10.008 C7.82135076,9.65599824 7.92011521,9.32533488 8.11764706,9.016 C8.31517891,8.70666512 8.58242388,8.46133424 8.91938998,8.28 C9.25635608,8.09866576 9.61655582,8.008 10,8.008 Z M10,13.352 C10.6623127,13.352 11.2723284,13.2026682 11.8300654,12.904 C12.3878024,12.6053318 12.8293375,12.2000026 13.1546841,11.688 C13.4800307,11.1759974 13.6427015,10.616003 13.6427015,10.008 C13.6427015,9.39999696 13.4800307,8.84000256 13.1546841,8.328 C12.8293375,7.81599744 12.3878024,7.41066816 11.8300654,7.112 C11.2723284,6.81333184 10.6623127,6.664 10,6.664 C9.33768732,6.664 8.72767163,6.81333184 8.16993464,7.112 C7.61219765,7.41066816 7.17066248,7.81599744 6.8453159,8.328 C6.51996932,8.84000256 6.35729847,9.39999696 6.35729847,10.008 C6.35729847,10.616003 6.51996932,11.1759974 6.8453159,11.688 C7.17066248,12.2000026 7.61219765,12.6053318 8.16993464,12.904 C8.72767163,13.2026682 9.33768732,13.352 10,13.352 Z M10,5 C11.1968106,5 12.3355066,5.2133312 13.416122,5.64 C14.4618789,6.05600208 15.3827121,6.64266288 16.1786492,7.4 C16.9745864,8.15733712 17.5816973,9.02666176 18,10.008 C17.5816973,10.9893382 16.9745864,11.8559962 16.1786492,12.608 C15.3827121,13.3600038 14.4618789,13.9439979 13.416122,14.36 C12.3355066,14.7866688 11.1968106,15 10,15 C8.80318937,15 7.66449342,14.7866688 6.583878,14.36 C5.53812113,13.9439979 4.61728793,13.3600038 3.82135076,12.608 C3.02541359,11.8559962 2.41830275,10.9893382 2,10.008 C2.41830275,9.02666176 3.02541359,8.15733712 3.82135076,7.4 C4.61728793,6.64266288 5.53812113,6.05600208 6.583878,5.64 C7.66449342,5.2133312 8.80318937,5 10,5 Z" id="path-1"></path>
    </defs>
    <g id="icons-/-view" stroke="none" stroke-width="1" fill="none" fill-rule="evenodd" transform="translate(-2.000000, -5.000000)">
        <mask id="mask-2" fill="white">
            <use xlink:href="#path-1"></use>
        </mask>
        <use id="remove_red_eye---material" fill="#D5D5DE" xlink:href="#path-1"></use>
    </g>
</svg>